<svg width="1024" height="1024" viewBox="0 0 1024 1024" fill="none" xmlns="http://www.w3.org/2000/svg">
<mask id="path-1-inside-1_201_2" fill="white">
<path d="M38 224C38 121.275 121.275 38 224 38H800C902.725 38 986 121.275 986 224V800C986 902.725 902.725 986 800 986H224C121.275 986 38 902.725 38 800V224Z"/>
</mask>
<path d="M38 224C38 121.275 121.275 38 224 38H800C902.725 38 986 121.275 986 224V800C986 902.725 902.725 986 800 986H224C121.275 986 38 902.725 38 800V224Z" fill="#000B27"/>
<path d="M38 224C38 117.961 123.961 32 230 32H794C900.039 32 986 117.961 986 224C986 124.589 902.725 44 800 44H224C121.275 44 38 124.589 38 224ZM986 800C986 908.248 898.248 996 790 996H234C125.752 996 38 908.248 38 800C38 897.202 121.275 976 224 976H800C902.725 976 986 897.202 986 800ZM38 986V38V986ZM986 38V986V38Z" fill="url(#paint0_linear_201_2)" mask="url(#path-1-inside-1_201_2)"/>
<path d="M432.737 259.741C431.502 253.731 440.089 251.21 442.299 256.934L507.336 425.334C508.983 429.599 515.017 429.599 516.664 425.334L581.702 256.934C583.912 251.21 592.498 253.731 591.263 259.741L554.932 436.571C554.011 441.049 559.088 444.311 562.779 441.614L708.536 335.108C713.49 331.488 719.35 338.251 715.062 342.639L588.897 471.755C585.701 475.025 588.208 480.514 592.772 480.241L772.972 469.444C779.096 469.077 780.37 477.935 774.39 479.309L598.448 519.718C593.992 520.741 593.133 526.714 597.12 528.951L754.551 617.292C759.902 620.294 756.184 628.435 750.411 626.357L580.552 565.23C576.25 563.681 572.299 568.242 574.443 572.28L659.122 731.71C662 737.129 654.472 741.967 650.738 737.098L540.892 593.842C538.11 590.214 532.32 591.914 531.941 596.47L516.983 776.372C516.474 782.486 507.526 782.487 507.017 776.372L492.059 596.47C491.68 591.914 485.89 590.214 483.108 593.842L373.262 737.098C369.528 741.967 362 737.129 364.878 731.71L449.557 572.279C451.701 568.242 447.75 563.681 443.448 565.229L273.589 626.357C267.816 628.434 264.099 620.294 269.449 617.292L426.88 528.951C430.867 526.714 430.008 520.741 425.553 519.717L249.61 479.308C243.63 477.935 244.904 469.077 251.028 469.444L431.228 480.241C435.792 480.514 438.299 475.025 435.104 471.755L308.938 342.639C304.65 338.251 310.511 331.488 315.464 335.108L461.221 441.614C464.913 444.311 469.989 441.049 469.069 436.571L432.737 259.741Z" fill="#FF9100"/>
<path d="M512 86L532.403 442.514L742.313 153.626L566.731 464.575L899.503 335.033L583.683 501.694L933.664 572.626L577.876 542.084L833.949 790.971L551.153 572.924L632.018 920.744L512 584.42L391.982 920.744L472.847 572.924L190.051 790.971L446.124 542.084L90.3361 572.626L440.317 501.694L124.497 335.033L457.269 464.575L281.687 153.626L491.597 442.514L512 86Z" fill="#EFEEF0"/>
<defs>
<linearGradient id="paint0_linear_201_2" x1="512" y1="38" x2="512" y2="986" gradientUnits="userSpaceOnUse">
<stop stop-color="#4060B1"/>
<stop offset="1" stop-color="#00154B"/>
</linearGradient>
</defs>
</svg>
